<svg xmlns="http://www.w3.org/2000/svg" viewBox="0 0 320 220" role="img">
  <title>Maia – Vertiefe dein Wissen</title>
  <defs>
    <radialGradient id="faceGradient" cx="38%" cy="32%" r="68%">
      <stop offset="0%" stop-color="#ffe9f1"/>
      <stop offset="70%" stop-color="#f8cad9"/>
      <stop offset="100%" stop-color="#efb6c9"/>
    </radialGradient>
  </defs>
  <rect x="0" y="0" width="320" height="220" rx="26" fill="#e8f6f0"/>
  <path d="M210 55 C210 25 252 14 278 30 C302 45 306 76 286 93 C262 113 220 101 212 79 C208 69 208 62 210 55 Z" fill="#fdf0f3"/>
  <!-- body -->
  <path d="M102 220 Q102 128 152 118 Q202 128 202 220 Z" fill="#C3EBD8"/>
  <!-- arms resting relaxed behind the head -->
  <path d="M118 154 Q96 150 100 120" fill="none" stroke="#C3EBD8" stroke-width="17" stroke-linecap="round"/>
  <circle cx="100" cy="118" r="8" fill="#C3EBD8"/>
  <path d="M186 154 Q208 150 204 120" fill="none" stroke="#C3EBD8" stroke-width="17" stroke-linecap="round"/>
  <circle cx="204" cy="118" r="8" fill="#C3EBD8"/>
  <!-- head (fixed Maia face) -->
  <g transform="translate(85.44 21.44) scale(0.26)">
    <circle cx="256" cy="256" r="150" fill="url(#faceGradient)"/>
    <path d="M168 172c16-12 35-14 52-5" fill="none" stroke="#b05b79" stroke-linecap="round" stroke-width="14"/>
    <path d="M292 166c17-10 37-7 52 5" fill="none" stroke="#b05b79" stroke-linecap="round" stroke-width="14"/>
    <path d="M168 224c14-10 29-10 43 0" fill="none" stroke="#1f1f22" stroke-linecap="round" stroke-width="18"/>
    <path d="M301 224c14-10 29-10 43 0" fill="none" stroke="#1f1f22" stroke-linecap="round" stroke-width="18"/>
    <path d="M198 309c35 21 81 21 116 0" fill="none" stroke="#1f1f22" stroke-linecap="round" stroke-width="18"/>
  </g>
  <!-- over-ear headphones (mint) -->
  <path d="M113 80 Q152 50 191 80" fill="none" stroke="#C3EBD8" stroke-width="9" stroke-linecap="round"/>
  <circle cx="112" cy="94" r="13" fill="#C3EBD8"/>
  <circle cx="192" cy="94" r="13" fill="#C3EBD8"/>
  <circle cx="112" cy="94" r="7" fill="#44885f"/>
  <circle cx="192" cy="94" r="7" fill="#44885f"/>
  <!-- soft sound wave -->
  <path d="M206 82 Q214 94 206 106" fill="none" stroke="#44885f" stroke-width="3" stroke-linecap="round"/>
  <path d="M213 76 Q225 94 213 112" fill="none" stroke="#44885f" stroke-width="3" stroke-linecap="round" opacity="0.7"/>
  <path d="M220 70 Q236 94 220 118" fill="none" stroke="#44885f" stroke-width="3" stroke-linecap="round" opacity="0.45"/>
</svg>
