<svg xmlns="http://www.w3.org/2000/svg" viewBox="0 0 512 512" role="img" aria-label="Maia warm heart eyes emoji">
  <defs>
    <radialGradient id="faceGradient" cx="38%" cy="32%" r="68%">
      <stop offset="0%" stop-color="#ffe9f1"/>
      <stop offset="70%" stop-color="#f8cad9"/>
      <stop offset="100%" stop-color="#efb6c9"/>
    </radialGradient>
  </defs>
  <circle cx="256" cy="256" r="220" fill="#1f1f22"/>
  <circle cx="256" cy="256" r="150" fill="url(#faceGradient)"/>
  <path d="M168 172c16-12 35-14 52-5" fill="none" stroke="#b05b79" stroke-linecap="round" stroke-width="14"/>
  <path d="M292 166c17-10 37-7 52 5" fill="none" stroke="#b05b79" stroke-linecap="round" stroke-width="14"/>
  <path d="M184 196c-11-15-32-12-39 5-7 15 2 30 18 41l20 14 20-14c16-11 24-26 18-41-7-17-28-20-39-5l-9 12-9-12z" fill="#1f1f22"/>
  <path d="M330 196c-11-15-32-12-39 5-7 15 2 30 18 41l20 14 20-14c16-11 24-26 18-41-7-17-28-20-39-5l-9 12-9-12z" fill="#1f1f22"/>
  <path d="M200 309c34 20 78 20 112 0" fill="none" stroke="#1f1f22" stroke-linecap="round" stroke-width="18"/>
</svg>
