<svg xmlns="http://www.w3.org/2000/svg" xmlns:xlink="http://www.w3.org/1999/xlink" width="1810" zoomAndPan="magnify" viewBox="0 0 1357.5 355.499994" height="474" preserveAspectRatio="xMidYMid meet" version="1.0"><defs><g/><clipPath id="a5f2cec0c7"><path d="M 0.703125 0 L 1356.296875 0 L 1356.296875 355 L 0.703125 355 Z M 0.703125 0 " clip-rule="nonzero"/></clipPath></defs><g clip-path="url(#a5f2cec0c7)"><path fill="#ffffff" d="M 0.703125 0 L 1356.296875 0 L 1356.296875 355 L 0.703125 355 Z M 0.703125 0 " fill-opacity="1" fill-rule="nonzero"/></g><g fill="#000000" fill-opacity="1"><g transform="translate(50.770308, 149.894636)"><g><path d="M 93.859375 0 L 93.859375 -23.625 C 93.859375 -27.519531 93.078125 -30.804688 91.515625 -33.484375 C 89.960938 -36.171875 87.21875 -38.1875 83.28125 -39.53125 C 79.34375 -40.875 73.78125 -41.546875 66.59375 -41.546875 C 62.53125 -41.546875 58.570312 -41.175781 54.71875 -40.4375 C 50.863281 -39.695312 47.398438 -38.804688 44.328125 -37.765625 C 41.253906 -36.734375 38.8125 -35.695312 37 -34.65625 L 36.734375 -40.890625 C 37.078125 -42.191406 38.265625 -44.160156 40.296875 -46.796875 C 42.335938 -49.429688 45.304688 -52.195312 49.203125 -55.09375 C 53.097656 -58 58.007812 -60.46875 63.9375 -62.5 C 69.863281 -64.539062 76.894531 -65.5625 85.03125 -65.5625 C 90.132812 -65.5625 95.066406 -65.082031 99.828125 -64.125 C 104.585938 -63.175781 108.847656 -61.597656 112.609375 -59.390625 C 116.378906 -57.179688 119.390625 -54.21875 121.640625 -50.5 C 123.890625 -46.78125 125.015625 -42.148438 125.015625 -36.609375 L 125.015625 0 Z M 7.140625 0 L 7.140625 -89.578125 L 38.296875 -89.578125 L 38.296875 0 Z M 7.140625 0 "/></g></g></g><g fill="#000000" fill-opacity="1"><g transform="translate(181.622346, 149.894636)"><g><path d="M 52.96875 1.8125 C 43.613281 1.8125 35.300781 0.492188 28.03125 -2.140625 C 20.769531 -4.773438 15.039062 -8.601562 10.84375 -13.625 C 6.644531 -18.644531 4.546875 -24.703125 4.546875 -31.796875 C 4.546875 -39.242188 6.644531 -45.476562 10.84375 -50.5 C 15.039062 -55.519531 20.769531 -59.285156 28.03125 -61.796875 C 35.300781 -64.304688 43.613281 -65.5625 52.96875 -65.5625 C 63.351562 -65.5625 72.332031 -64.15625 79.90625 -61.34375 C 87.476562 -58.53125 93.316406 -54.585938 97.421875 -49.515625 C 101.535156 -44.453125 103.59375 -38.546875 103.59375 -31.796875 C 103.59375 -26.785156 102.421875 -22.222656 100.078125 -18.109375 C 97.742188 -13.992188 94.367188 -10.441406 89.953125 -7.453125 C 85.546875 -4.472656 80.222656 -2.179688 73.984375 -0.578125 C 67.753906 1.015625 60.75 1.8125 52.96875 1.8125 Z M 64.640625 -17.921875 C 71.222656 -17.921875 77.257812 -18.328125 82.75 -19.140625 C 88.25 -19.960938 92.664062 -21.367188 96 -23.359375 C 99.332031 -25.359375 101 -28.171875 101 -31.796875 C 101 -35.523438 99.332031 -38.382812 96 -40.375 C 92.664062 -42.363281 88.25 -43.742188 82.75 -44.515625 C 77.257812 -45.296875 71.222656 -45.6875 64.640625 -45.6875 C 55.816406 -45.6875 48.976562 -44.539062 44.125 -42.25 C 39.28125 -39.957031 36.859375 -36.472656 36.859375 -31.796875 C 36.859375 -28.773438 37.941406 -26.222656 40.109375 -24.140625 C 42.273438 -22.066406 45.429688 -20.507812 49.578125 -19.46875 C 53.734375 -18.4375 58.753906 -17.921875 64.640625 -17.921875 Z M 101 -63.609375 L 132.15625 -63.609375 L 132.15625 0 L 102.8125 0 C 102.8125 0 102.660156 -0.992188 102.359375 -2.984375 C 102.054688 -4.972656 101.753906 -7.828125 101.453125 -11.546875 C 101.148438 -15.273438 101 -19.648438 101 -24.671875 Z M 101 -63.609375 "/></g></g></g><g fill="#000000" fill-opacity="1"><g transform="translate(319.61413, 149.894636)"><g><path d="M 40.109375 -96.96875 L 40.109375 -77.5 L 7.140625 -77.5 L 7.140625 -96.96875 Z M 8.046875 -63.609375 L 39.203125 -63.609375 L 39.203125 0 L 8.046875 0 Z M 8.046875 -63.609375 "/></g></g></g><g fill="#000000" fill-opacity="1"><g transform="translate(366.866264, 149.894636)"><g><path d="M 5.84375 -63.609375 L 37 -63.609375 L 37 0 L 5.84375 0 Z M 70.484375 -39.59375 C 64.859375 -39.59375 59.707031 -39.070312 55.03125 -38.03125 C 50.363281 -37 46.382812 -35.765625 43.09375 -34.328125 C 39.8125 -32.898438 37.347656 -31.492188 35.703125 -30.109375 L 35.4375 -36.34375 C 35.695312 -38.164062 36.390625 -40.304688 37.515625 -42.765625 C 38.640625 -45.234375 40.15625 -47.785156 42.0625 -50.421875 C 43.96875 -53.066406 46.300781 -55.535156 49.0625 -57.828125 C 51.832031 -60.117188 55.015625 -61.976562 58.609375 -63.40625 C 62.203125 -64.84375 66.160156 -65.5625 70.484375 -65.5625 Z M 70.484375 -39.59375 "/></g></g></g><g fill="#000000" fill-opacity="1"><g transform="translate(439.951273, 149.894636)"><g><path d="M 52.96875 1.8125 C 43.613281 1.8125 35.300781 0.492188 28.03125 -2.140625 C 20.769531 -4.773438 15.039062 -8.601562 10.84375 -13.625 C 6.644531 -18.644531 4.546875 -24.703125 4.546875 -31.796875 C 4.546875 -39.242188 6.644531 -45.476562 10.84375 -50.5 C 15.039062 -55.519531 20.769531 -59.285156 28.03125 -61.796875 C 35.300781 -64.304688 43.613281 -65.5625 52.96875 -65.5625 C 60.75 -65.5625 67.753906 -64.757812 73.984375 -63.15625 C 80.222656 -61.550781 85.546875 -59.253906 89.953125 -56.265625 C 94.367188 -53.285156 97.742188 -49.71875 100.078125 -45.5625 C 102.421875 -41.40625 103.59375 -36.816406 103.59375 -31.796875 C 103.59375 -26.785156 102.421875 -22.222656 100.078125 -18.109375 C 97.742188 -13.992188 94.367188 -10.441406 89.953125 -7.453125 C 85.546875 -4.472656 80.222656 -2.179688 73.984375 -0.578125 C 67.753906 1.015625 60.75 1.8125 52.96875 1.8125 Z M 64.640625 -17.921875 C 71.222656 -17.921875 77.257812 -18.328125 82.75 -19.140625 C 88.25 -19.960938 92.664062 -21.367188 96 -23.359375 C 99.332031 -25.359375 101 -28.171875 101 -31.796875 C 101 -35.523438 99.332031 -38.382812 96 -40.375 C 92.664062 -42.363281 88.25 -43.742188 82.75 -44.515625 C 77.257812 -45.296875 71.222656 -45.6875 64.640625 -45.6875 C 55.816406 -45.6875 48.976562 -44.539062 44.125 -42.25 C 39.28125 -39.957031 36.859375 -36.472656 36.859375 -31.796875 C 36.859375 -28.773438 37.941406 -26.222656 40.109375 -24.140625 C 42.273438 -22.066406 45.429688 -20.507812 49.578125 -19.46875 C 53.734375 -18.4375 58.753906 -17.921875 64.640625 -17.921875 Z M 101 -89.578125 L 132.15625 -89.578125 L 132.15625 0 L 102.8125 0 C 102.46875 -1.988281 102.078125 -5.210938 101.640625 -9.671875 C 101.210938 -14.128906 101 -19.128906 101 -24.671875 Z M 101 -89.578125 "/></g></g></g><g fill="#000000" fill-opacity="1"><g transform="translate(582.486541, 149.894636)"><g><path d="M 5.84375 -63.609375 L 37 -63.609375 L 37 0 L 5.84375 0 Z M 70.484375 -39.59375 C 64.859375 -39.59375 59.707031 -39.070312 55.03125 -38.03125 C 50.363281 -37 46.382812 -35.765625 43.09375 -34.328125 C 39.8125 -32.898438 37.347656 -31.492188 35.703125 -30.109375 L 35.4375 -36.34375 C 35.695312 -38.164062 36.390625 -40.304688 37.515625 -42.765625 C 38.640625 -45.234375 40.15625 -47.785156 42.0625 -50.421875 C 43.96875 -53.066406 46.300781 -55.535156 49.0625 -57.828125 C 51.832031 -60.117188 55.015625 -61.976562 58.609375 -63.40625 C 62.203125 -64.84375 66.160156 -65.5625 70.484375 -65.5625 Z M 70.484375 -39.59375 "/></g></g></g><g fill="#000000" fill-opacity="1"><g transform="translate(655.57155, 149.894636)"><g><path d="M 93.59375 -22.84375 L 124.234375 -22.84375 C 123.453125 -17.820312 120.960938 -13.453125 116.765625 -9.734375 C 112.566406 -6.015625 106.460938 -3.132812 98.453125 -1.09375 C 90.453125 0.9375 80.265625 1.953125 67.890625 1.953125 C 54.828125 1.953125 43.554688 0.914062 34.078125 -1.15625 C 24.597656 -3.238281 17.304688 -6.742188 12.203125 -11.671875 C 7.097656 -16.609375 4.546875 -23.273438 4.546875 -31.671875 C 4.546875 -39.984375 7.03125 -46.625 12 -51.59375 C 16.976562 -56.570312 24.179688 -60.144531 33.609375 -62.3125 C 43.046875 -64.476562 54.472656 -65.5625 67.890625 -65.5625 C 81.046875 -65.5625 91.820312 -64.390625 100.21875 -62.046875 C 108.613281 -59.710938 114.800781 -55.925781 118.78125 -50.6875 C 122.757812 -45.457031 124.660156 -38.382812 124.484375 -29.46875 L 36.21875 -29.46875 C 36.644531 -27.21875 37.875 -25.140625 39.90625 -23.234375 C 41.945312 -21.328125 45.109375 -19.789062 49.390625 -18.625 C 53.671875 -17.457031 59.40625 -16.875 66.59375 -16.875 C 74.03125 -16.875 80.148438 -17.390625 84.953125 -18.421875 C 89.765625 -19.460938 92.644531 -20.9375 93.59375 -22.84375 Z M 66.59375 -46.734375 C 57.414062 -46.734375 50.425781 -45.738281 45.625 -43.75 C 40.820312 -41.757812 37.988281 -39.769531 37.125 -37.78125 L 94.25 -37.78125 C 93.632812 -40.03125 91.207031 -42.082031 86.96875 -43.9375 C 82.726562 -45.800781 75.9375 -46.734375 66.59375 -46.734375 Z M 66.59375 -46.734375 "/></g></g></g><g fill="#000000" fill-opacity="1"><g transform="translate(784.606216, 149.894636)"><g><path d="M 5.1875 -22.84375 L 33.875 -22.84375 C 35.09375 -20.59375 37.410156 -19.035156 40.828125 -18.171875 C 44.242188 -17.304688 49.15625 -16.875 55.5625 -16.875 C 60.488281 -16.875 64.140625 -17.132812 66.515625 -17.65625 C 68.898438 -18.175781 70.460938 -18.867188 71.203125 -19.734375 C 71.941406 -20.597656 72.3125 -21.503906 72.3125 -22.453125 C 72.3125 -23.929688 71.507812 -24.953125 69.90625 -25.515625 C 68.300781 -26.078125 65.59375 -26.421875 61.78125 -26.546875 C 57.976562 -26.671875 52.742188 -26.734375 46.078125 -26.734375 C 39.765625 -26.734375 34.117188 -27.015625 29.140625 -27.578125 C 24.160156 -28.140625 19.941406 -29.046875 16.484375 -30.296875 C 13.023438 -31.554688 10.382812 -33.3125 8.5625 -35.5625 C 6.75 -37.8125 5.84375 -40.625 5.84375 -44 C 5.84375 -48.15625 7.179688 -51.640625 9.859375 -54.453125 C 12.546875 -57.265625 16.179688 -59.472656 20.765625 -61.078125 C 25.359375 -62.679688 30.660156 -63.828125 36.671875 -64.515625 C 42.679688 -65.210938 48.976562 -65.5625 55.5625 -65.5625 C 66.46875 -65.5625 75.378906 -64.457031 82.296875 -62.25 C 89.222656 -60.039062 94.328125 -57.070312 97.609375 -53.34375 C 100.898438 -49.625 102.503906 -45.429688 102.421875 -40.765625 L 74.515625 -40.765625 C 73.554688 -43.015625 71.757812 -44.570312 69.125 -45.4375 C 66.488281 -46.300781 61.96875 -46.734375 55.5625 -46.734375 C 49.5 -46.734375 45.101562 -46.273438 42.375 -45.359375 C 39.65625 -44.453125 38.296875 -43.003906 38.296875 -41.015625 C 38.296875 -39.722656 38.960938 -38.75 40.296875 -38.09375 C 41.640625 -37.445312 44.191406 -36.992188 47.953125 -36.734375 C 51.722656 -36.472656 57.242188 -36.34375 64.515625 -36.34375 C 69.535156 -36.34375 74.445312 -36.171875 79.25 -35.828125 C 84.050781 -35.484375 88.378906 -34.75 92.234375 -33.625 C 96.085938 -32.5 99.140625 -30.765625 101.390625 -28.421875 C 103.640625 -26.085938 104.765625 -22.890625 104.765625 -18.828125 C 104.765625 -13.890625 102.75 -9.882812 98.71875 -6.8125 C 94.695312 -3.738281 89.007812 -1.507812 81.65625 -0.125 C 74.300781 1.257812 65.601562 1.953125 55.5625 1.953125 C 46.820312 1.953125 39.441406 1.390625 33.421875 0.265625 C 27.410156 -0.859375 22.5 -2.351562 18.6875 -4.21875 C 14.882812 -6.082031 11.960938 -8.113281 9.921875 -10.3125 C 7.890625 -12.519531 6.550781 -14.726562 5.90625 -16.9375 C 5.257812 -19.144531 5.019531 -21.113281 5.1875 -22.84375 Z M 5.1875 -22.84375 "/></g></g></g><g fill="#000000" fill-opacity="1"><g transform="translate(893.909175, 149.894636)"><g><path d="M 5.1875 -22.84375 L 33.875 -22.84375 C 35.09375 -20.59375 37.410156 -19.035156 40.828125 -18.171875 C 44.242188 -17.304688 49.15625 -16.875 55.5625 -16.875 C 60.488281 -16.875 64.140625 -17.132812 66.515625 -17.65625 C 68.898438 -18.175781 70.460938 -18.867188 71.203125 -19.734375 C 71.941406 -20.597656 72.3125 -21.503906 72.3125 -22.453125 C 72.3125 -23.929688 71.507812 -24.953125 69.90625 -25.515625 C 68.300781 -26.078125 65.59375 -26.421875 61.78125 -26.546875 C 57.976562 -26.671875 52.742188 -26.734375 46.078125 -26.734375 C 39.765625 -26.734375 34.117188 -27.015625 29.140625 -27.578125 C 24.160156 -28.140625 19.941406 -29.046875 16.484375 -30.296875 C 13.023438 -31.554688 10.382812 -33.3125 8.5625 -35.5625 C 6.75 -37.8125 5.84375 -40.625 5.84375 -44 C 5.84375 -48.15625 7.179688 -51.640625 9.859375 -54.453125 C 12.546875 -57.265625 16.179688 -59.472656 20.765625 -61.078125 C 25.359375 -62.679688 30.660156 -63.828125 36.671875 -64.515625 C 42.679688 -65.210938 48.976562 -65.5625 55.5625 -65.5625 C 66.46875 -65.5625 75.378906 -64.457031 82.296875 -62.25 C 89.222656 -60.039062 94.328125 -57.070312 97.609375 -53.34375 C 100.898438 -49.625 102.503906 -45.429688 102.421875 -40.765625 L 74.515625 -40.765625 C 73.554688 -43.015625 71.757812 -44.570312 69.125 -45.4375 C 66.488281 -46.300781 61.96875 -46.734375 55.5625 -46.734375 C 49.5 -46.734375 45.101562 -46.273438 42.375 -45.359375 C 39.65625 -44.453125 38.296875 -43.003906 38.296875 -41.015625 C 38.296875 -39.722656 38.960938 -38.75 40.296875 -38.09375 C 41.640625 -37.445312 44.191406 -36.992188 47.953125 -36.734375 C 51.722656 -36.472656 57.242188 -36.34375 64.515625 -36.34375 C 69.535156 -36.34375 74.445312 -36.171875 79.25 -35.828125 C 84.050781 -35.484375 88.378906 -34.75 92.234375 -33.625 C 96.085938 -32.5 99.140625 -30.765625 101.390625 -28.421875 C 103.640625 -26.085938 104.765625 -22.890625 104.765625 -18.828125 C 104.765625 -13.890625 102.75 -9.882812 98.71875 -6.8125 C 94.695312 -3.738281 89.007812 -1.507812 81.65625 -0.125 C 74.300781 1.257812 65.601562 1.953125 55.5625 1.953125 C 46.820312 1.953125 39.441406 1.390625 33.421875 0.265625 C 27.410156 -0.859375 22.5 -2.351562 18.6875 -4.21875 C 14.882812 -6.082031 11.960938 -8.113281 9.921875 -10.3125 C 7.890625 -12.519531 6.550781 -14.726562 5.90625 -16.9375 C 5.257812 -19.144531 5.019531 -21.113281 5.1875 -22.84375 Z M 5.1875 -22.84375 "/></g></g></g><g fill="#000000" fill-opacity="1"><g transform="translate(1003.212224, 149.894636)"><g><path d="M 40.109375 -96.96875 L 40.109375 -77.5 L 7.140625 -77.5 L 7.140625 -96.96875 Z M 8.046875 -63.609375 L 39.203125 -63.609375 L 39.203125 0 L 8.046875 0 Z M 8.046875 -63.609375 "/></g></g></g><g fill="#000000" fill-opacity="1"><g transform="translate(1050.464336, 149.894636)"><g><path d="M 5.84375 -63.609375 L 37 -63.609375 L 37 0 L 5.84375 0 Z M 83.734375 -65.5625 C 88.835938 -65.5625 93.769531 -65.019531 98.53125 -63.9375 C 103.289062 -62.851562 107.550781 -61.007812 111.3125 -58.40625 C 115.082031 -55.8125 118.09375 -52.265625 120.34375 -47.765625 C 122.59375 -43.265625 123.71875 -37.597656 123.71875 -30.765625 L 123.71875 0 L 92.5625 0 L 92.5625 -26.875 C 92.5625 -33.363281 90.875 -37.96875 87.5 -40.6875 C 84.125 -43.414062 78.019531 -44.78125 69.1875 -44.78125 C 64.519531 -44.78125 60 -44.257812 55.625 -43.21875 C 51.25 -42.1875 47.332031 -40.957031 43.875 -39.53125 C 40.414062 -38.101562 37.691406 -36.695312 35.703125 -35.3125 L 35.4375 -40.234375 C 35.78125 -41.796875 36.96875 -43.984375 39 -46.796875 C 41.039062 -49.609375 44.007812 -52.441406 47.90625 -55.296875 C 51.800781 -58.148438 56.710938 -60.570312 62.640625 -62.5625 C 68.566406 -64.5625 75.597656 -65.5625 83.734375 -65.5625 Z M 83.734375 -65.5625 "/></g></g></g><g fill="#000000" fill-opacity="1"><g transform="translate(1180.018202, 149.894636)"><g><path d="M 58.28125 -8.953125 C 46 -8.953125 35.875 -9.96875 27.90625 -12 C 19.945312 -14.039062 14.0625 -17.113281 10.25 -21.21875 C 6.445312 -25.332031 4.546875 -30.503906 4.546875 -36.734375 C 4.546875 -42.535156 6.40625 -47.578125 10.125 -51.859375 C 13.84375 -56.140625 19.660156 -59.492188 27.578125 -61.921875 C 35.503906 -64.347656 45.738281 -65.5625 58.28125 -65.5625 C 60.789062 -65.5625 63.34375 -65.5625 65.9375 -65.5625 C 68.539062 -65.5625 71.097656 -65.5625 73.609375 -65.5625 L 123.1875 -65.5625 L 123.1875 -49.203125 C 117.5625 -48.941406 111.867188 -49.222656 106.109375 -50.046875 C 100.359375 -50.867188 95.0625 -51.972656 90.21875 -53.359375 L 88.796875 -55.296875 C 92.691406 -54.085938 96.390625 -52.53125 99.890625 -50.625 C 103.390625 -48.71875 106.222656 -46.421875 108.390625 -43.734375 C 110.554688 -41.054688 111.640625 -37.859375 111.640625 -34.140625 C 111.640625 -28.773438 109.800781 -24.207031 106.125 -20.4375 C 102.445312 -16.675781 96.691406 -13.820312 88.859375 -11.875 C 81.023438 -9.925781 70.832031 -8.953125 58.28125 -8.953125 Z M 85.9375 27.90625 L 85.9375 24.40625 C 85.9375 21.8125 84.789062 20.273438 82.5 19.796875 C 80.207031 19.316406 76.59375 19.078125 71.65625 19.078125 L 35.4375 19.078125 C 29.289062 19.078125 24.332031 18.644531 20.5625 17.78125 C 16.800781 16.914062 13.945312 15.75 12 14.28125 C 10.0625 12.8125 8.765625 11.1875 8.109375 9.40625 C 7.460938 7.632812 7.140625 5.882812 7.140625 4.15625 C 7.140625 0.4375 8.523438 -2.476562 11.296875 -4.59375 C 14.066406 -6.71875 18.304688 -8.210938 24.015625 -9.078125 C 29.722656 -9.953125 36.992188 -10.390625 45.828125 -10.390625 L 58.28125 -8.953125 C 51.007812 -8.953125 45.945312 -8.582031 43.09375 -7.84375 C 40.238281 -7.113281 38.8125 -5.664062 38.8125 -3.5 C 38.8125 -2.289062 39.375 -1.40625 40.5 -0.84375 C 41.625 -0.28125 43.140625 0 45.046875 0 L 83.34375 0 C 91.90625 0 98.648438 0.625 103.578125 1.875 C 108.515625 3.132812 112 5.253906 114.03125 8.234375 C 116.070312 11.222656 117.09375 15.316406 117.09375 20.515625 L 117.09375 27.90625 Z M 58.28125 -25.96875 C 64 -25.96875 68.609375 -26.421875 72.109375 -27.328125 C 75.617188 -28.234375 78.148438 -29.460938 79.703125 -31.015625 C 81.265625 -32.578125 82.046875 -34.3125 82.046875 -36.21875 C 82.046875 -38.382812 81.265625 -40.242188 79.703125 -41.796875 C 78.148438 -43.359375 75.640625 -44.570312 72.171875 -45.4375 C 68.710938 -46.300781 64.082031 -46.734375 58.28125 -46.734375 C 52.570312 -46.734375 47.941406 -46.300781 44.390625 -45.4375 C 40.847656 -44.570312 38.253906 -43.359375 36.609375 -41.796875 C 34.960938 -40.242188 34.140625 -38.382812 34.140625 -36.21875 C 34.140625 -34.3125 34.9375 -32.578125 36.53125 -31.015625 C 38.132812 -29.460938 40.710938 -28.234375 44.265625 -27.328125 C 47.816406 -26.421875 52.488281 -25.96875 58.28125 -25.96875 Z M 58.28125 -25.96875 "/></g></g></g><g fill="#3a9e7e" fill-opacity="1"><g transform="translate(586.498964, 288.698708)"><g/></g></g><g fill="#3a9e7e" fill-opacity="1"><g transform="translate(626.743141, 288.698708)"><g><path d="M 5.1875 -22.84375 L 33.875 -22.84375 C 35.09375 -20.59375 37.410156 -19.035156 40.828125 -18.171875 C 44.242188 -17.304688 49.15625 -16.875 55.5625 -16.875 C 60.488281 -16.875 64.140625 -17.132812 66.515625 -17.65625 C 68.898438 -18.175781 70.460938 -18.867188 71.203125 -19.734375 C 71.941406 -20.597656 72.3125 -21.503906 72.3125 -22.453125 C 72.3125 -23.929688 71.507812 -24.953125 69.90625 -25.515625 C 68.300781 -26.078125 65.59375 -26.421875 61.78125 -26.546875 C 57.976562 -26.671875 52.742188 -26.734375 46.078125 -26.734375 C 39.765625 -26.734375 34.117188 -27.015625 29.140625 -27.578125 C 24.160156 -28.140625 19.941406 -29.046875 16.484375 -30.296875 C 13.023438 -31.554688 10.382812 -33.3125 8.5625 -35.5625 C 6.75 -37.8125 5.84375 -40.625 5.84375 -44 C 5.84375 -48.15625 7.179688 -51.640625 9.859375 -54.453125 C 12.546875 -57.265625 16.179688 -59.472656 20.765625 -61.078125 C 25.359375 -62.679688 30.660156 -63.828125 36.671875 -64.515625 C 42.679688 -65.210938 48.976562 -65.5625 55.5625 -65.5625 C 66.46875 -65.5625 75.378906 -64.457031 82.296875 -62.25 C 89.222656 -60.039062 94.328125 -57.070312 97.609375 -53.34375 C 100.898438 -49.625 102.503906 -45.429688 102.421875 -40.765625 L 74.515625 -40.765625 C 73.554688 -43.015625 71.757812 -44.570312 69.125 -45.4375 C 66.488281 -46.300781 61.96875 -46.734375 55.5625 -46.734375 C 49.5 -46.734375 45.101562 -46.273438 42.375 -45.359375 C 39.65625 -44.453125 38.296875 -43.003906 38.296875 -41.015625 C 38.296875 -39.722656 38.960938 -38.75 40.296875 -38.09375 C 41.640625 -37.445312 44.191406 -36.992188 47.953125 -36.734375 C 51.722656 -36.472656 57.242188 -36.34375 64.515625 -36.34375 C 69.535156 -36.34375 74.445312 -36.171875 79.25 -35.828125 C 84.050781 -35.484375 88.378906 -34.75 92.234375 -33.625 C 96.085938 -32.5 99.140625 -30.765625 101.390625 -28.421875 C 103.640625 -26.085938 104.765625 -22.890625 104.765625 -18.828125 C 104.765625 -13.890625 102.75 -9.882812 98.71875 -6.8125 C 94.695312 -3.738281 89.007812 -1.507812 81.65625 -0.125 C 74.300781 1.257812 65.601562 1.953125 55.5625 1.953125 C 46.820312 1.953125 39.441406 1.390625 33.421875 0.265625 C 27.410156 -0.859375 22.5 -2.351562 18.6875 -4.21875 C 14.882812 -6.082031 11.960938 -8.113281 9.921875 -10.3125 C 7.890625 -12.519531 6.550781 -14.726562 5.90625 -16.9375 C 5.257812 -19.144531 5.019531 -21.113281 5.1875 -22.84375 Z M 5.1875 -22.84375 "/></g></g></g><g fill="#3a9e7e" fill-opacity="1"><g transform="translate(736.046133, 288.698708)"><g><path d="M 124.484375 -27.65625 C 124.484375 -21.414062 122.535156 -16.085938 118.640625 -11.671875 C 114.753906 -7.265625 108.613281 -3.890625 100.21875 -1.546875 C 91.820312 0.785156 80.914062 1.953125 67.5 1.953125 C 54.082031 1.953125 42.679688 0.867188 33.296875 -1.296875 C 23.910156 -3.460938 16.769531 -7.007812 11.875 -11.9375 C 6.988281 -16.875 4.546875 -23.453125 4.546875 -31.671875 C 4.546875 -39.890625 6.988281 -46.488281 11.875 -51.46875 C 16.769531 -56.445312 23.910156 -60.039062 33.296875 -62.25 C 42.679688 -64.457031 54.082031 -65.5625 67.5 -65.5625 C 80.914062 -65.5625 91.773438 -64.390625 100.078125 -62.046875 C 108.390625 -59.710938 114.492188 -56.335938 118.390625 -51.921875 C 122.285156 -47.503906 124.273438 -42.226562 124.359375 -36.09375 L 95.796875 -36.09375 C 94.410156 -39.46875 91.296875 -42.082031 86.453125 -43.9375 C 81.609375 -45.800781 75.289062 -46.734375 67.5 -46.734375 C 61.1875 -46.734375 55.691406 -46.273438 51.015625 -45.359375 C 46.335938 -44.453125 42.722656 -42.914062 40.171875 -40.75 C 37.617188 -38.59375 36.34375 -35.566406 36.34375 -31.671875 C 36.34375 -27.867188 37.597656 -24.882812 40.109375 -22.71875 C 42.617188 -20.550781 46.207031 -19.035156 50.875 -18.171875 C 55.550781 -17.304688 61.09375 -16.875 67.5 -16.875 C 75.289062 -16.875 81.628906 -17.800781 86.515625 -19.65625 C 91.410156 -21.519531 94.550781 -24.1875 95.9375 -27.65625 Z M 124.484375 -27.65625 "/></g></g></g><g fill="#3a9e7e" fill-opacity="1"><g transform="translate(865.080785, 288.698708)"><g><path d="M 93.859375 0 L 93.859375 -23.625 C 93.859375 -27.519531 93.078125 -30.804688 91.515625 -33.484375 C 89.960938 -36.171875 87.21875 -38.1875 83.28125 -39.53125 C 79.34375 -40.875 73.78125 -41.546875 66.59375 -41.546875 C 62.53125 -41.546875 58.570312 -41.175781 54.71875 -40.4375 C 50.863281 -39.695312 47.398438 -38.804688 44.328125 -37.765625 C 41.253906 -36.734375 38.8125 -35.695312 37 -34.65625 L 36.734375 -40.890625 C 37.078125 -42.191406 38.265625 -44.160156 40.296875 -46.796875 C 42.335938 -49.429688 45.304688 -52.195312 49.203125 -55.09375 C 53.097656 -58 58.007812 -60.46875 63.9375 -62.5 C 69.863281 -64.539062 76.894531 -65.5625 85.03125 -65.5625 C 90.132812 -65.5625 95.066406 -65.082031 99.828125 -64.125 C 104.585938 -63.175781 108.847656 -61.597656 112.609375 -59.390625 C 116.378906 -57.179688 119.390625 -54.21875 121.640625 -50.5 C 123.890625 -46.78125 125.015625 -42.148438 125.015625 -36.609375 L 125.015625 0 Z M 7.140625 0 L 7.140625 -89.578125 L 38.296875 -89.578125 L 38.296875 0 Z M 7.140625 0 "/></g></g></g><g fill="#3a9e7e" fill-opacity="1"><g transform="translate(995.932823, 288.698708)"><g><path d="M 66.203125 1.953125 C 52.441406 1.953125 40.992188 0.828125 31.859375 -1.421875 C 22.734375 -3.671875 15.898438 -7.265625 11.359375 -12.203125 C 6.816406 -17.140625 4.546875 -23.628906 4.546875 -31.671875 C 4.546875 -39.722656 6.816406 -46.234375 11.359375 -51.203125 C 15.898438 -56.179688 22.734375 -59.816406 31.859375 -62.109375 C 40.992188 -64.410156 52.441406 -65.5625 66.203125 -65.5625 C 79.878906 -65.5625 91.238281 -64.410156 100.28125 -62.109375 C 109.320312 -59.816406 116.09375 -56.179688 120.59375 -51.203125 C 125.09375 -46.234375 127.34375 -39.722656 127.34375 -31.671875 C 127.34375 -23.628906 125.09375 -17.140625 120.59375 -12.203125 C 116.09375 -7.265625 109.320312 -3.671875 100.28125 -1.421875 C 91.238281 0.828125 79.878906 1.953125 66.203125 1.953125 Z M 66.203125 -16.875 C 72.609375 -16.875 77.972656 -17.414062 82.296875 -18.5 C 86.628906 -19.582031 89.921875 -21.222656 92.171875 -23.421875 C 94.421875 -25.628906 95.546875 -28.378906 95.546875 -31.671875 C 95.546875 -34.960938 94.441406 -37.734375 92.234375 -39.984375 C 90.023438 -42.234375 86.753906 -43.921875 82.421875 -45.046875 C 78.097656 -46.171875 72.691406 -46.734375 66.203125 -46.734375 C 59.796875 -46.734375 54.363281 -46.171875 49.90625 -45.046875 C 45.457031 -43.921875 42.082031 -42.253906 39.78125 -40.046875 C 37.488281 -37.835938 36.34375 -35.046875 36.34375 -31.671875 C 36.34375 -28.378906 37.46875 -25.628906 39.71875 -23.421875 C 41.96875 -21.222656 45.320312 -19.582031 49.78125 -18.5 C 54.238281 -17.414062 59.710938 -16.875 66.203125 -16.875 Z M 66.203125 -16.875 "/></g></g></g><g fill="#3a9e7e" fill-opacity="1"><g transform="translate(1127.823373, 288.698708)"><g><path d="M 66.203125 1.953125 C 52.441406 1.953125 40.992188 0.828125 31.859375 -1.421875 C 22.734375 -3.671875 15.898438 -7.265625 11.359375 -12.203125 C 6.816406 -17.140625 4.546875 -23.628906 4.546875 -31.671875 C 4.546875 -39.722656 6.816406 -46.234375 11.359375 -51.203125 C 15.898438 -56.179688 22.734375 -59.816406 31.859375 -62.109375 C 40.992188 -64.410156 52.441406 -65.5625 66.203125 -65.5625 C 79.878906 -65.5625 91.238281 -64.410156 100.28125 -62.109375 C 109.320312 -59.816406 116.09375 -56.179688 120.59375 -51.203125 C 125.09375 -46.234375 127.34375 -39.722656 127.34375 -31.671875 C 127.34375 -23.628906 125.09375 -17.140625 120.59375 -12.203125 C 116.09375 -7.265625 109.320312 -3.671875 100.28125 -1.421875 C 91.238281 0.828125 79.878906 1.953125 66.203125 1.953125 Z M 66.203125 -16.875 C 72.609375 -16.875 77.972656 -17.414062 82.296875 -18.5 C 86.628906 -19.582031 89.921875 -21.222656 92.171875 -23.421875 C 94.421875 -25.628906 95.546875 -28.378906 95.546875 -31.671875 C 95.546875 -34.960938 94.441406 -37.734375 92.234375 -39.984375 C 90.023438 -42.234375 86.753906 -43.921875 82.421875 -45.046875 C 78.097656 -46.171875 72.691406 -46.734375 66.203125 -46.734375 C 59.796875 -46.734375 54.363281 -46.171875 49.90625 -45.046875 C 45.457031 -43.921875 42.082031 -42.253906 39.78125 -40.046875 C 37.488281 -37.835938 36.34375 -35.046875 36.34375 -31.671875 C 36.34375 -28.378906 37.46875 -25.628906 39.71875 -23.421875 C 41.96875 -21.222656 45.320312 -19.582031 49.78125 -18.5 C 54.238281 -17.414062 59.710938 -16.875 66.203125 -16.875 Z M 66.203125 -16.875 "/></g></g></g><g fill="#3a9e7e" fill-opacity="1"><g transform="translate(1259.7139, 288.698708)"><g><path d="M 7.78125 -89.578125 L 38.9375 -89.578125 L 38.9375 0 L 7.78125 0 Z M 7.78125 -89.578125 "/></g></g></g></svg>