<svg xmlns="http://www.w3.org/2000/svg" viewBox="0 0 320 220" role="img">
  <title>Maia – Stimm dich ein</title>
  <defs>
    <radialGradient id="faceGradient" cx="38%" cy="32%" r="68%">
      <stop offset="0%" stop-color="#ffe9f1"/>
      <stop offset="70%" stop-color="#f8cad9"/>
      <stop offset="100%" stop-color="#efb6c9"/>
    </radialGradient>
  </defs>
  <rect x="0" y="0" width="320" height="220" rx="26" fill="#e8f6f0"/>
  <path d="M210 55 C210 25 252 14 278 30 C302 45 306 76 286 93 C262 113 220 101 212 79 C208 69 208 62 210 55 Z" fill="#fdf0f3"/>
  <!-- body -->
  <path d="M110 220 Q110 128 160 118 Q210 128 210 220 Z" fill="#C3EBD8"/>
  <!-- arms, hands folded calmly -->
  <path d="M120 152 Q135 196 160 198" fill="none" stroke="#C3EBD8" stroke-width="17" stroke-linecap="round"/>
  <path d="M200 152 Q185 196 160 198" fill="none" stroke="#C3EBD8" stroke-width="17" stroke-linecap="round"/>
  <circle cx="160" cy="198" r="9" fill="#C3EBD8"/>
  <!-- head (fixed Maia face) -->
  <g transform="translate(93.44 17.44) scale(0.26)">
    <circle cx="256" cy="256" r="150" fill="url(#faceGradient)"/>
    <path d="M168 172c16-12 35-14 52-5" fill="none" stroke="#b05b79" stroke-linecap="round" stroke-width="14"/>
    <path d="M292 166c17-10 37-7 52 5" fill="none" stroke="#b05b79" stroke-linecap="round" stroke-width="14"/>
    <path d="M168 224c14-10 29-10 43 0" fill="none" stroke="#1f1f22" stroke-linecap="round" stroke-width="18"/>
    <path d="M301 224c14-10 29-10 43 0" fill="none" stroke="#1f1f22" stroke-linecap="round" stroke-width="18"/>
    <path d="M198 309c35 21 81 21 116 0" fill="none" stroke="#1f1f22" stroke-linecap="round" stroke-width="18"/>
  </g>
  <!-- over-ear headphones (mint) -->
  <path d="M121 74 Q160 44 199 74" fill="none" stroke="#C3EBD8" stroke-width="9" stroke-linecap="round"/>
  <circle cx="120" cy="88" r="13" fill="#C3EBD8"/>
  <circle cx="200" cy="88" r="13" fill="#C3EBD8"/>
  <circle cx="120" cy="88" r="7" fill="#44885f"/>
  <circle cx="200" cy="88" r="7" fill="#44885f"/>
  <!-- music note -->
  <ellipse cx="248" cy="62" rx="6.5" ry="5" fill="#44885f"/>
  <path d="M254 61 L254 38" fill="none" stroke="#44885f" stroke-width="3" stroke-linecap="round"/>
  <path d="M254 38 Q262 40 262 47" fill="none" stroke="#44885f" stroke-width="3" stroke-linecap="round"/>
</svg>
